<?xml version="1.0" encoding="iso-8859-1"?>
<!-- Generator: Adobe Illustrator 18.0.0, SVG Export Plug-In . SVG Version: 6.00 Build 0)  -->
<!DOCTYPE svg PUBLIC "-//W3C//DTD SVG 1.1//EN" "http://www.w3.org/Graphics/SVG/1.1/DTD/svg11.dtd">
<svg version="1.1" id="Capa_1" xmlns="http://www.w3.org/2000/svg" xmlns:xlink="http://www.w3.org/1999/xlink" x="0px" y="0px"
	 viewBox="0 0 297 297" style="enable-background:new 0 0 297 297;" xml:space="preserve">
<path d="M238.809,101.227c-5.541,0-10.034,4.492-10.034,10.035v9.896H214.44V61.433C214.44,27.559,186.886,0,153.019,0h-9.037
	C110.114,0,82.56,27.559,82.56,61.433v59.726H68.226v-9.896c0-5.543-4.493-10.035-10.034-10.035
	c-5.542,0-10.034,4.492-10.034,10.035v51.092c0,52.751,40.265,95.84,90.309,97.363v17.215h-24.573
	c-5.542,0-10.034,4.492-10.034,10.034c0,5.54,4.492,10.034,10.034,10.034h69.215c5.542,0,10.034-4.494,10.034-10.034
	c0-5.542-4.492-10.034-10.034-10.034h-24.573v-17.215c50.045-1.525,90.309-44.612,90.309-97.363v-51.092
	C248.843,105.719,244.351,101.227,238.809,101.227z M194.372,71.992v83.781h-91.744V71.992H194.372z M191.611,175.842
	c-5.976,15.5-21.016,26.532-38.593,26.532h-9.037c-17.577,0-32.617-11.032-38.593-26.532H191.611z M143.981,20.068h9.037
	c19.53,0,35.931,13.617,40.238,31.855h-89.514C108.051,33.686,124.451,20.068,143.981,20.068z M155.795,239.692h-14.591
	c-40.24,0-72.979-34.694-72.979-77.339v-21.127H82.56v19.781c0,33.875,27.555,61.435,61.422,61.435h9.037
	c33.867,0,61.422-27.56,61.422-61.435v-19.781h14.334v21.127C228.774,204.998,196.036,239.692,155.795,239.692z"/>
<g>
</g>
<g>
</g>
<g>
</g>
<g>
</g>
<g>
</g>
<g>
</g>
<g>
</g>
<g>
</g>
<g>
</g>
<g>
</g>
<g>
</g>
<g>
</g>
<g>
</g>
<g>
</g>
<g>
</g>
</svg>
