<?xml version="1.0" encoding="iso-8859-1"?>
<!-- Generator: Adobe Illustrator 18.0.0, SVG Export Plug-In . SVG Version: 6.00 Build 0)  -->
<!DOCTYPE svg PUBLIC "-//W3C//DTD SVG 1.1//EN" "http://www.w3.org/Graphics/SVG/1.1/DTD/svg11.dtd">
<svg version="1.1" id="Capa_1" xmlns="http://www.w3.org/2000/svg" xmlns:xlink="http://www.w3.org/1999/xlink" x="0px" y="0px"
	 viewBox="0 0 297 297" style="enable-background:new 0 0 297 297;" xml:space="preserve">
<g>
	<path d="M213.976,54.004C210.295,23.623,184.371,0,153.019,0h-9.037c-31.353,0-57.276,23.623-60.957,54.004H213.976z"/>
	<path d="M83.899,173.762c5.887,27.774,30.586,48.681,60.082,48.681h9.037c29.496,0,54.195-20.906,60.082-48.681H83.899z"/>
	<path d="M238.81,101.227c-5.542,0-10.035,4.493-10.035,10.035v9.896H214.44v-51.1H82.56v51.1H68.226v-9.896
		c0-5.542-4.493-10.035-10.035-10.035c-5.541,0-10.034,4.493-10.034,10.035v51.094c0,52.75,40.265,95.838,90.309,97.361v17.215
		h-24.573c-5.542,0-10.034,4.493-10.034,10.034c0,5.542,4.492,10.034,10.034,10.034h69.215c5.542,0,10.034-4.492,10.034-10.034
		c0-5.541-4.492-10.034-10.034-10.034h-24.573v-17.215c50.046-1.523,90.31-44.611,90.31-97.361v-51.094
		C248.844,105.72,244.351,101.227,238.81,101.227z M228.774,162.355c0,42.643-32.738,77.338-72.98,77.338h-14.591
		c-40.241,0-72.979-34.694-72.979-77.338v-21.129H82.56v16.48H214.44v-16.48h14.334V162.355z"/>
</g>
<g>
</g>
<g>
</g>
<g>
</g>
<g>
</g>
<g>
</g>
<g>
</g>
<g>
</g>
<g>
</g>
<g>
</g>
<g>
</g>
<g>
</g>
<g>
</g>
<g>
</g>
<g>
</g>
<g>
</g>
</svg>
